# File created by Blade
# Date/Time:  Thu Sep 25 15:31:15 2014
# Frame Rate: 120.000 fps
#------------------------------------------------------
:FULLY-SPECIFIED
:DEGREES
787
root 24.225452 32.074665 -4.112420 167.850345 -67.606002 -128.331335
Spine 26.259537 16.792114 -1.141865
Head -38.158870 3.609868 7.307531
LeftShoulder 8.185670 3.107077 19.344474
LeftArm 57.445690 16.290547 -49.854980
LeftForeArm 8.050528 -0.000000 17.192068
LeftHand -29.667780 0.000000 3.913231
LeftHandThumb1 -26.253704 0.000000 33.147579
RightShoulder 8.280662 32.242287 -22.302182
RightArm 31.355636 -29.533178 78.575139
RightForeArm -22.610113 -0.000000 16.703270
RightHand -5.346447 -0.000000 7.174432
RightHandThumb1 -24.326973 -0.000000 -32.862282
LeftUpLeg -66.630033 18.608595 5.734797
LeftLeg 3.217401 -0.000000 -0.000000
LeftFoot 26.219365 28.808231 -20.715021
LeftToeBase 5.410239 -0.000000 -0.000000
RightUpLeg -31.473111 -1.428520 23.879232
RightLeg 14.427941 -0.000000 -0.000000
RightFoot -19.268917 -12.235414 -1.274782
RightToeBase 0.072538 -0.000000 -0.000000
788
root 24.393892 32.088759 -4.140266 167.516938 -67.798648 -128.274943
Spine 26.285369 16.752618 -1.101076
Head -38.030056 3.381241 7.436184
LeftShoulder 8.346118 2.872631 19.505590
LeftArm 57.464469 16.551095 -49.890823
LeftForeArm 7.645289 -0.000000 16.815817
LeftHand -29.448935 0.000000 3.508196
LeftHandThumb1 -26.253704 0.000000 33.147579
RightShoulder 8.320238 32.105825 -22.022011
RightArm 31.134919 -29.561527 78.418662
RightForeArm -22.498060 -0.000000 16.673814
RightHand -5.414340 -0.000000 6.969669
RightHandThumb1 -24.326973 -0.000000 -32.862282
LeftUpLeg -67.067076 18.792329 5.052139
LeftLeg 3.095091 -0.000000 -0.000000
LeftFoot 27.951696 29.370612 -20.494997
LeftToeBase 6.114202 -0.000000 -0.000000
RightUpLeg -31.218537 -0.541637 23.517003
RightLeg 13.884870 -0.000000 -0.000000
RightFoot -19.097294 -13.340560 -1.445995
RightToeBase 0.294208 -0.000000 -0.000000
789
root 24.552604 32.096452 -4.173797 166.937988 -67.976885 -128.049756
Spine 26.419203 16.723168 -0.925459
Head -37.893166 3.191338 7.506538
LeftShoulder 8.459943 2.701852 19.674404
LeftArm 57.603159 16.714364 -49.989187
LeftForeArm 7.585523 -0.000000 16.494488
LeftHand -29.499110 -0.000000 2.776384
LeftHandThumb1 -26.253704 0.000000 33.147579
RightShoulder 8.361099 31.976685 -21.782959
RightArm 30.894945 -29.468584 78.329014
RightForeArm -22.523312 0.000000 16.550006
RightHand -5.314135 0.000000 7.159028
RightHandThumb1 -24.326973 -0.000000 -32.862282
LeftUpLeg -67.405686 18.951977 4.524529
LeftLeg 3.072301 -0.000000 -0.000000
LeftFoot 29.460962 29.747498 -20.117599
LeftToeBase 7.177526 -0.000000 -0.000000
RightUpLeg -30.940801 0.023691 23.346428
RightLeg 13.496041 -0.000000 -0.000000
RightFoot -18.966470 -14.132395 -1.636725
RightToeBase 0.294853 -0.000000 -0.000000
790
root 24.700613 32.098158 -4.207214 166.248292 -68.106165 -127.770574
Spine 26.623318 16.727786 -0.658992
Head -37.749337 2.956301 7.460908
LeftShoulder 8.603688 2.472340 19.825815
LeftArm 57.608478 16.841423 -50.211601
LeftForeArm 7.498072 0.000000 16.302584
LeftHand -29.492316 0.000000 1.942373
LeftHandThumb1 -26.253704 0.000000 33.147579
RightShoulder 8.420007 31.730983 -21.607942
RightArm 30.854240 -29.479562 78.024832
RightForeArm -22.396105 -0.000000 16.408989
RightHand -5.379906 -0.000000 7.120700
RightHandThumb1 -24.326973 -0.000000 -32.862282
LeftUpLeg -67.664923 19.099952 4.160864
LeftLeg 3.185252 -0.000000 -0.000000
LeftFoot 30.635667 30.346474 -20.243680
LeftToeBase 7.781676 -0.000000 -0.000000
RightUpLeg -30.653291 0.325176 23.313653
RightLeg 13.251943 -0.000000 -0.000000
RightFoot -18.889439 -14.604600 -1.833551
RightToeBase 0.254520 -0.000000 -0.000000
791
root 24.842340 32.096273 -4.243121 165.424902 -68.203528 -127.347771
Spine 26.817748 16.735635 -0.288117
Head -37.578295 2.708740 7.309356
LeftShoulder 8.729567 2.318003 19.913723
LeftArm 57.751184 16.946207 -50.327003
LeftForeArm 7.220676 -0.000000 16.025073
LeftHand -29.311592 -0.000000 1.407210
LeftHandThumb1 -26.253704 0.000000 33.147579
RightShoulder 8.513190 31.662761 -21.458369
RightArm 30.532325 -29.359169 77.990565
RightForeArm -22.466232 -0.000000 16.211603
RightHand -5.331324 -0.000000 7.390729
RightHandThumb1 -24.326973 -0.000000 -32.862282
LeftUpLeg -67.933905 19.238764 3.910420
LeftLeg 3.426706 -0.000000 -0.000000
LeftFoot 31.595220 30.896979 -20.297202
LeftToeBase 8.445271 -0.000000 -0.000000
RightUpLeg -30.353256 0.667622 23.325205
RightLeg 13.009677 -0.000000 -0.000000
RightFoot -18.796573 -15.110061 -1.980710
RightToeBase 0.313940 -0.000000 -0.000000
792
root 24.973880 32.093532 -4.275822 164.729818 -68.206254 -127.066081
Spine 27.046048 16.866975 0.072556
Head -37.467654 2.492389 7.120886
LeftShoulder 8.814876 2.168477 19.942420
LeftArm 57.891666 17.011071 -50.425275
LeftForeArm 7.155973 -0.000000 15.897903
LeftHand -29.230771 -0.000000 1.256142
LeftHandThumb1 -26.253704 0.000000 33.147579
RightShoulder 8.546473 31.619973 -21.361813
RightArm 30.244515 -29.307755 77.940684
RightForeArm -22.468147 -0.000000 15.991695
RightHand -5.365182 -0.000000 7.469767
RightHandThumb1 -24.326973 -0.000000 -32.862282
LeftUpLeg -68.065347 19.364538 3.926902
LeftLeg 3.715114 -0.000000 -0.000000
LeftFoot 32.418265 31.420349 -20.146441
LeftToeBase 9.165897 -0.000000 -0.000000
RightUpLeg -29.997657 1.110222 23.293308
RightLeg 12.736199 -0.000000 -0.000000
RightFoot -18.650823 -15.629373 -2.059868
RightToeBase 0.301808 -0.000000 -0.000000
793
root 25.105059 32.092551 -4.309146 163.928159 -68.192970 -126.619935
Spine 27.234665 16.913746 0.476303
Head -37.384414 2.374122 6.884872
LeftShoulder 8.780594 2.029827 19.952692
LeftArm 58.030688 17.042282 -50.614722
LeftForeArm 7.021434 0.000000 15.805599
LeftHand -29.101016 -0.000000 0.931684
LeftHandThumb1 -26.253704 0.000000 33.147579
RightShoulder 8.581305 31.459080 -21.302073
RightArm 30.210114 -29.353674 77.721559
RightForeArm -22.401028 -0.000000 15.769550
RightHand -5.419416 -0.000000 7.539625
RightHandThumb1 -24.326973 -0.000000 -32.862282
LeftUpLeg -68.295779 19.472511 4.025904
LeftLeg 4.188540 -0.000000 -0.000000
LeftFoot 33.018901 31.883039 -19.996527
LeftToeBase 10.419695 -0.000000 -0.000000
RightUpLeg -29.716675 1.383078 23.401571
RightLeg 12.520356 -0.000000 -0.000000
RightFoot -18.561902 -15.916323 -2.029109
RightToeBase 0.454030 -0.000000 -0.000000
794
root 25.225919 32.092488 -4.335271 163.310739 -68.102988 -126.357961
Spine 27.433344 17.058644 0.875811
Head -37.313600 2.232738 6.524646
LeftShoulder 8.796841 1.832469 19.857187
LeftArm 58.022034 16.988036 -50.880709
LeftForeArm 7.066796 -0.000000 15.858520
LeftHand -29.135517 0.000000 0.634176
LeftHandThumb1 -26.253704 0.000000 33.147579
RightShoulder 8.557385 31.383021 -21.297778
RightArm 30.080196 -29.289152 77.697875
RightForeArm -22.560021 -0.000000 15.489911
RightHand -5.445939 0.000000 7.546912
RightHandThumb1 -24.326973 -0.000000 -32.862282
LeftUpLeg -68.445763 19.619504 4.164525
LeftLeg 4.603814 -0.000000 -0.000000
LeftFoot 33.580706 32.180227 -19.814705
LeftToeBase 11.400786 -0.000000 -0.000000
RightUpLeg -29.465110 1.496387 23.558198
RightLeg 12.412784 -0.000000 -0.000000
RightFoot -18.457089 -15.982123 -2.031153
RightToeBase 0.480760 -0.000000 -0.000000
795
root 25.345847 32.095328 -4.360272 162.749714 -67.970970 -126.088445
Spine 27.579727 17.213361 1.261600
Head -37.272044 2.113523 6.202629
LeftShoulder 8.768334 1.762377 19.773281
LeftArm 58.172431 16.872364 -51.034571
LeftForeArm 7.207484 -0.000000 15.869376
LeftHand -29.094041 -0.000000 0.625393
LeftHandThumb1 -26.253704 0.000000 33.147579
RightShoulder 8.540689 31.313621 -21.341880
RightArm 30.012148 -29.301565 77.638909
RightForeArm -22.700120 -0.000000 15.220273
RightHand -5.428139 -0.000000 7.827465
RightHandThumb1 -24.326973 -0.000000 -32.862282
LeftUpLeg -68.628671 19.768956 4.370194
LeftLeg 5.051908 -0.000000 -0.000000
LeftFoot 33.904020 32.680976 -19.842905
LeftToeBase 12.811967 -0.000000 -0.000000
RightUpLeg -29.283108 1.507783 23.802152
RightLeg 12.349452 -0.000000 -0.000000
RightFoot -18.320315 -15.906024 -2.064881
RightToeBase 0.470635 -0.000000 -0.000000
796
root 25.457372 32.101649 -4.377897 162.325053 -67.866254 -125.947415
Spine 27.730033 17.326663 1.569308
Head -37.251901 2.069448 5.910523
LeftShoulder 8.688318 1.902677 19.694367
LeftArm 58.506031 16.604587 -51.096217
LeftForeArm 7.450480 -0.000000 15.917651
LeftHand -29.109823 0.000000 0.488176
LeftHandThumb1 -26.253704 0.000000 33.147579
RightShoulder 8.507734 31.276864 -21.319205
RightArm 29.985584 -29.261424 77.595748
RightForeArm -22.926977 0.000000 14.935859
RightHand -5.486502 -0.000000 7.874977
RightHandThumb1 -24.326973 -0.000000 -32.862282
LeftUpLeg -68.782629 19.874584 4.516104
LeftLeg 5.468651 -0.000000 -0.000000
LeftFoot 34.207774 33.078137 -19.604847
LeftToeBase 14.514675 -0.000000 -0.000000
RightUpLeg -29.142091 1.275566 24.070559
RightLeg 12.344600 -0.000000 -0.000000
RightFoot -18.191149 -15.543700 -2.134469
RightToeBase 0.406082 -0.000000 -0.000000
797
root 25.563583 32.110022 -4.393832 162.052301 -67.763578 -125.940593
Spine 27.871044 17.464334 1.765404
Head -37.263004 2.053587 5.737651
LeftShoulder 8.645902 1.785368 19.591261
LeftArm 58.634204 16.452679 -51.133680
LeftForeArm 7.638826 0.000000 15.948188
LeftHand -29.090590 0.000000 0.622791
LeftHandThumb1 -26.253704 0.000000 33.147579
RightShoulder 8.487293 31.258907 -21.287577
RightArm 29.991930 -29.277669 77.516312
RightForeArm -23.092424 -0.000000 14.699130
RightHand -5.493854 -0.000000 8.130585
RightHandThumb1 -24.326973 -0.000000 -32.862282
LeftUpLeg -68.903423 19.943009 4.699829
LeftLeg 5.899465 -0.000000 -0.000000
LeftFoot 34.247824 33.554443 -19.641838
LeftToeBase 15.049376 -0.000000 -0.000000
RightUpLeg -29.027670 0.947725 24.338172
RightLeg 12.348982 -0.000000 -0.000000
RightFoot -18.078729 -15.103335 -2.258455
RightToeBase 0.439027 -0.000000 -0.000000
798
root 25.665208 32.118968 -4.407031 161.840427 -67.723290 -125.953728
Spine 27.932694 17.539851 1.900350
Head -37.183820 2.005159 5.648091
LeftShoulder 8.633774 1.766138 19.520920
LeftArm 58.822246 16.245695 -51.074362
LeftForeArm 7.754750 -0.000000 16.011397
LeftHand -29.183539 -0.000000 0.710960
LeftHandThumb1 -26.253704 0.000000 33.147579
RightShoulder 8.529261 31.210299 -21.261494
RightArm 29.967456 -29.207187 77.474199
RightForeArm -23.268654 -0.000000 14.539135
RightHand -5.464345 -0.000000 8.156531
RightHandThumb1 -24.326973 -0.000000 -32.862282
LeftUpLeg -69.089175 19.991858 4.711200
LeftLeg 6.272510 -0.000000 -0.000000
LeftFoot 34.550873 33.780604 -19.255815
LeftToeBase 16.077046 -0.000000 -0.000000
RightUpLeg -28.995598 0.479843 24.630298
RightLeg 12.417697 -0.000000 -0.000000
RightFoot -17.950209 -14.677272 -2.572140
RightToeBase 0.367097 -0.000000 -0.000000
